<svg xmlns="http://www.w3.org/2000/svg" width="100%" height="100%" viewBox="0 0 159 35" fill="none" preserveAspectRatio="xMidYMid meet" aria-hidden="true" role="img">
<path d="M2.59209e-06 18.4266H5.30733C5.30733 20.5981 6.27353 21.724 8.445 21.724C10.6165 21.724 11.4197 20.5981 11.4197 18.4266V4.19141H16.9685V18.4266C16.9712 19.5318 16.7477 20.6258 16.3088 21.6401C15.8699 22.6545 15.2254 23.5675 14.418 24.3222C13.6105 25.0769 12.6558 25.657 11.6141 26.0264C10.5724 26.3958 9.46703 26.5465 8.3645 26.4691C7.28159 26.5124 6.20076 26.3365 5.18756 25.9518C4.17436 25.567 3.24934 24.9815 2.46812 24.2303C1.68689 23.4792 1.06424 22.5778 0.640102 21.5805C0.215962 20.5832 -0.000864791 19.5104 2.59209e-06 18.4266Z" fill="currentColor"></path>
<path d="M20.0288 18.3461V9.66016H25.0946V18.3461C25.0946 21.0001 26.3826 22.126 28.3128 22.126C30.243 22.126 31.4485 21.0001 31.4485 18.3461V9.66016H36.5968V18.3461C36.5968 20.543 35.7234 22.6501 34.1699 24.2036C32.6164 25.7571 30.5098 26.6298 28.3128 26.6298C26.1158 26.6298 24.0072 25.7571 22.4537 24.2036C20.9002 22.6501 20.0288 20.543 20.0288 18.3461Z" fill="currentColor"></path>
<path d="M42.3037 7.08172C44.036 7.08172 45.4404 5.67743 45.4404 3.94516C45.4404 2.21288 44.036 0.808594 42.3037 0.808594C40.5714 0.808594 39.168 2.21288 39.168 3.94516C39.168 5.67743 40.5714 7.08172 42.3037 7.08172Z" fill="currentColor"></path>
<path d="M44.8788 9.66016H39.812V26.3885H44.8788V9.66016Z" fill="currentColor"></path>
<path d="M47.0496 18.0255C47.015 16.8406 47.2255 15.6614 47.6681 14.5618C48.1106 13.4621 48.776 12.4657 49.6217 11.6351C50.4674 10.8045 51.4752 10.1576 52.5827 9.73489C53.6901 9.31221 54.874 9.1229 56.0581 9.1788C58.142 8.99728 60.215 9.63481 61.8366 10.9561C63.4583 12.2774 64.5015 14.1786 64.7446 16.2562H59.5963C59.3265 15.5448 58.8394 14.9365 58.2042 14.5178C57.5689 14.0992 56.8182 13.8913 56.0581 13.9239C55.1291 14.1106 54.2924 14.6131 53.6921 15.3462C53.0917 16.0793 52.7653 16.9976 52.7653 17.9451C52.7653 18.8926 53.0917 19.8109 53.6921 20.544C54.2924 21.277 55.1291 21.7796 56.0581 21.9663C56.8182 21.9989 57.5689 21.791 58.2042 21.3723C58.8394 20.9536 59.3265 20.3454 59.5963 19.634H64.7446C64.5015 21.7116 63.4583 23.6128 61.8366 24.9341C60.215 26.2554 58.142 26.8929 56.0581 26.7114C54.8878 26.7662 53.7183 26.5815 52.622 26.1685C51.5256 25.7556 50.5259 25.1232 49.6826 24.31C48.8393 23.4967 48.1697 22.5199 47.7171 21.4393C47.2646 20.3586 47.0373 19.197 47.0496 18.0255Z" fill="currentColor"></path>
<path d="M66.8368 27.9995H71.9026C72.3852 29.1255 73.2708 29.608 74.8793 29.608C76.4878 29.608 78.176 28.5625 78.176 25.9889V24.3C77.7445 25.0155 77.1288 25.602 76.3931 25.9981C75.6574 26.3942 74.8286 26.5855 73.9937 26.5519C70.455 26.5519 66.6758 24.2196 66.6758 18.0269V9.98438H71.7416V18.0269C71.7416 20.6809 73.0276 21.8068 74.9578 21.8068C76.888 21.8068 78.176 20.6004 78.176 18.0269V9.98438H83.2418V26.0693C83.3129 27.1439 83.1535 28.2212 82.7745 29.2292C82.3955 30.2372 81.8061 31.1526 81.0446 31.9141C80.2832 32.6755 79.3685 33.2655 78.3605 33.6446C77.3526 34.0236 76.2739 34.1829 75.1993 34.1118C73.2826 34.3905 71.3341 33.9065 69.7703 32.7637C68.2064 31.6209 67.1535 29.9104 66.8368 27.9995Z" fill="currentColor"></path>
<path d="M86.3745 21.6338H88.6266C88.6266 23.4836 90.3946 24.7704 93.2094 24.7704C96.0243 24.7704 97.7137 23.4032 97.7137 21.6338C97.7137 19.8645 95.6222 19.3015 93.2094 19.0602C90.7967 18.8189 86.777 18.1755 86.777 14.476C86.777 10.7765 89.1881 9.16797 93.1289 9.16797C97.0698 9.16797 99.4829 11.3394 99.5633 14.2347H97.3112C97.3112 12.5458 95.7025 11.259 93.1289 11.259C90.5553 11.259 89.0272 12.5458 89.0272 14.3152C89.0272 16.0845 91.1991 16.567 93.5315 16.8887C95.8638 17.2104 100.046 17.6126 100.046 21.473C100.046 25.3333 97.3915 26.8614 93.2094 26.8614C89.0274 26.8614 86.4549 24.7704 86.3745 21.6338Z" fill="currentColor"></path>
<path d="M102.783 18.4265V9.66016H105.035V18.4265C105.035 20.0262 105.669 21.5604 106.8 22.6916C107.931 23.8228 109.467 24.4583 111.067 24.4583C112.666 24.4583 114.2 23.8228 115.331 22.6916C116.463 21.5604 117.099 20.0262 117.099 18.4265V9.66016H119.349V18.4265C119.349 20.6234 118.477 22.7305 116.924 24.284C115.37 25.8375 113.264 26.7102 111.067 26.7102C108.87 26.7102 106.761 25.8375 105.208 24.284C103.654 22.7305 102.783 20.6234 102.783 18.4265Z" fill="currentColor"></path>
<path d="M123.051 4.6717C123.04 4.44323 123.075 4.21493 123.155 4.00064C123.235 3.78636 123.359 3.59058 123.517 3.42513C123.675 3.25968 123.864 3.12802 124.074 3.03816C124.285 2.9483 124.511 2.90209 124.74 2.90234C125.209 2.90234 125.659 3.08877 125.991 3.42059C126.322 3.7524 126.509 4.20244 126.509 4.6717C126.509 4.90043 126.463 5.12681 126.373 5.33714C126.284 5.54748 126.152 5.73737 125.987 5.8953C125.821 6.05323 125.624 6.17592 125.409 6.2559C125.195 6.33589 124.968 6.37151 124.74 6.36061C124.292 6.36061 123.861 6.18267 123.544 5.86594C123.227 5.5492 123.051 5.11963 123.051 4.6717Z" fill="currentColor"></path>
<path d="M125.945 9.66016H123.694V26.3885H125.945V9.66016Z" fill="currentColor"></path>
<path d="M139.29 11.7495V9.65845H132.455V3.70703H130.203V19.792C130.119 20.6757 130.228 21.567 130.523 22.4041C130.819 23.2411 131.294 24.0038 131.913 24.6391C132.533 25.2743 133.285 25.767 134.115 26.0827C134.944 26.3984 135.833 26.5296 136.718 26.4672V24.7783C136.123 24.8336 135.524 24.7529 134.965 24.5424C134.406 24.3319 133.901 23.9971 133.49 23.5633C133.08 23.1294 132.774 22.6079 132.595 22.0382C132.415 21.4684 132.368 20.8654 132.455 20.2745V12.232L139.29 11.7495Z" fill="currentColor"></path>
<path d="M141.068 18.0246C141.28 15.7928 142.316 13.7202 143.974 12.2117C145.633 10.7032 147.794 9.86719 150.036 9.86719C152.277 9.86719 154.439 10.7032 156.097 12.2117C157.755 13.7202 158.791 15.7928 159.003 18.0246V18.7484H143.399C143.44 19.5798 143.647 20.3946 144.006 21.1456C144.365 21.8966 144.869 22.5686 145.49 23.1225C146.111 23.6764 146.837 24.1011 147.624 24.3719C148.412 24.6427 149.244 24.7542 150.075 24.6999C151.211 24.7939 152.349 24.5643 153.36 24.0377C154.37 23.511 155.211 22.7089 155.785 21.7241H158.278C157.377 23.5281 155.902 24.9812 154.084 25.8545C152.267 26.7278 150.211 26.9718 148.239 26.548C146.268 26.1242 144.493 25.0568 143.195 23.5137C141.897 21.9706 141.149 20.0396 141.068 18.0246ZM156.67 16.7378C156.451 15.1678 155.654 13.7364 154.434 12.7246C153.214 11.7127 151.658 11.1935 150.075 11.2689C148.487 11.1746 146.923 11.6869 145.698 12.7022C144.474 13.7175 143.681 15.16 143.48 16.7378H156.67Z" fill="currentColor"></path>
</svg>